<svg width="1542" height="385" xmlns="http://www.w3.org/2000/svg" xmlns:xlink="http://www.w3.org/1999/xlink"><defs><path id="a" d="M0 0h1610v420H0z"/><path d="M69.787.396C31.436.396.417 31.42.417 69.778c0 52.037 69.37 128.854 69.37 128.854s69.37-76.817 69.37-128.854c0-38.358-31.018-69.382-69.37-69.382z" id="c"/></defs><g transform="translate(-11 -16)" fill="none" fill-rule="evenodd"><mask id="b" fill="#fff"><use xlink:href="#a"/></mask><g mask="url(#b)" opacity=".5" stroke="#094A9F"><g transform="translate(12 17)"><ellipse cx="281.5" cy="193.509" rx="49.5" ry="49.509"/><path d="M222 382.702c0-53.96 43.735-97.702 97.685-97.702s97.684 43.743 97.684 97.702H222zM112.485.085L224.88 112.479 112.465 224.894.071 112.499zM210.306 241.008v89.298h-89.314v-89.298z"/></g></g><g mask="url(#b)"><g transform="translate(1220 56)"><g transform="matrix(-1 0 0 1 332 0)" opacity=".5" stroke="#094A9F"><ellipse cx="65.937" cy="65.949" rx="25.235" ry="25.24"/><ellipse cx="65.937" cy="65.949" rx="65.937" ry="65.949"/></g><g transform="translate(133 134)"><mask id="d" fill="#fff"><use xlink:href="#c"/></mask><use stroke="#094A9F" opacity=".5" fill-rule="nonzero" transform="matrix(-1 0 0 1 139.575 0)" xlink:href="#c"/><path d="M70.2 44.999c-13.455 0-24.362 10.91-24.362 24.366 0 13.458 10.907 24.367 24.362 24.367A24.361 24.361 0 0 0 91.3 81.549a24.37 24.37 0 0 0 0-24.367A24.361 24.361 0 0 0 70.2 45z" stroke="#094A9F" opacity=".5" mask="url(#d)" transform="matrix(-1 0 0 1 140.4 0)"/></g><ellipse stroke="#094A9F" opacity=".5" transform="matrix(-1 0 0 1 150 0)" cx="75" cy="111.013" rx="75" ry="75.013"/><path stroke="#094A9F" opacity=".5" d="M74.732 226l43.724 43.724-43.732 43.733-43.725-43.725z"/></g></g></g></svg>