<svg width="411" height="217" xmlns="http://www.w3.org/2000/svg" xmlns:xlink="http://www.w3.org/1999/xlink"><defs><path d="M40.5 0C18.11 0 0 18.154 0 40.6 0 71.05 40.5 116 40.5 116S81 71.05 81 40.6C81 18.154 62.89 0 40.5 0z" id="a"/></defs><g fill="none" fill-rule="evenodd"><g opacity=".5" stroke="#094A9F" transform="translate(.19 1)"><ellipse cx="53.871" cy="179.877" rx="34.871" ry="34.877"/><path d="M52.002 0l51 50.999-51.01 51.008L.994 51.008z"/></g><g transform="translate(329.19 101)"><mask id="b" fill="#fff"><use xlink:href="#a"/></mask><use stroke="#094A9F" opacity=".5" fill-rule="nonzero" transform="matrix(-1 0 0 1 81 0)" xlink:href="#a"/><path d="M41.5 27C33.492 27 27 33.492 27 41.5S33.492 56 41.5 56a14.5 14.5 0 1 0 0-29z" stroke="#094A9F" opacity=".5" mask="url(#b)" transform="matrix(-1 0 0 1 83 0)"/></g><path stroke="#094A9F" opacity=".5" d="M358.19 1l28.996 28.996-29.001 29.001-28.996-28.996zM169.19 15l13.914 10.294L197.016 15l13.915 10.294L224.847 15l13.918 10.294L252.683 15"/></g></svg>